<?xml version="1.0" encoding="UTF-8" standalone="no"?>
<svg
   version="1.0"
   width="1280.000000pt"
   height="1280.000000pt"
   viewBox="0 0 1280.000000 1280.000000"
   preserveAspectRatio="xMidYMid meet"
   id="svg100"
   sodipodi:docname="26432.svg"
   inkscape:version="1.3.1 (9b9bdc1480, 2023-11-25, custom)"
   xmlns:inkscape="http://www.inkscape.org/namespaces/inkscape"
   xmlns:sodipodi="http://sodipodi.sourceforge.net/DTD/sodipodi-0.dtd"
   xmlns="http://www.w3.org/2000/svg"
   xmlns:svg="http://www.w3.org/2000/svg">
  <defs
     id="defs100" />
  <sodipodi:namedview
     id="namedview100"
     pagecolor="#161e19"
     bordercolor="#666666"
     borderopacity="1.0"
     inkscape:showpageshadow="2"
     inkscape:pageopacity="0.0"
     inkscape:pagecheckerboard="0"
     inkscape:deskcolor="#d1d1d1"
     inkscape:document-units="pt"
     showgrid="false"
     inkscape:zoom="0.52382813"
     inkscape:cx="1096.7338"
     inkscape:cy="792.24459"
     inkscape:window-width="1920"
     inkscape:window-height="1136"
     inkscape:window-x="0"
     inkscape:window-y="0"
     inkscape:window-maximized="1"
     inkscape:current-layer="svg100" />
  <metadata
     id="metadata1">
Created by potrace 1.15, written by Peter Selinger 2001-2017
</metadata>
  <g
     id="g100">
    <path
       d="M 55,33.5 C 44.5,37 35,47.6 32.8,58.3 28.5,78.9 49.1,99.5 69.7,95.2 85.2,92 97.2,76.2 95.7,61.3 94.6,50.8 86.7,40 76.7,35.1 70.6,32.2 61.2,31.5 55,33.5 Z"
       id="path1"
       style="fill:#161e1920;stroke:none;stroke-width:0.1" />
    <path
       d="m 183,33.5 c -15.1,5 -25.3,21.6 -22.2,36.2 2.5,11.9 13.6,23 25.4,25.5 19.4,4.1 39.5,-14.2 37.5,-33.9 -1.1,-10.5 -9,-21.3 -19,-26.2 -6.1,-2.9 -15.5,-3.6 -21.7,-1.6 z"
       id="path2"
       style="fill:#161e1920;stroke:none;stroke-width:0.1" />
    <path
       d="m 311,33.5 c -10.5,3.5 -20,14.1 -22.2,24.8 -4.3,20.6 16.3,41.2 36.9,36.9 15.5,-3.2 27.5,-19 26,-33.9 -1.1,-10.5 -9,-21.3 -19,-26.2 -6.1,-2.9 -15.5,-3.6 -21.7,-1.6 z"
       id="path3"
       style="fill:#161e1920;stroke:none;stroke-width:0.1" />
    <path
       d="m 439,33.5 c -10.5,3.5 -20,14.1 -22.2,24.8 -4.3,20.6 16.3,41.2 36.9,36.9 15.5,-3.2 27.5,-19 26,-33.9 -1.1,-10.5 -9,-21.3 -19,-26.2 -6.1,-2.9 -15.5,-3.6 -21.7,-1.6 z"
       id="path4"
       style="fill:#161e1920;stroke:none;stroke-width:0.1" />
    <path
       d="m 567,33.5 c -10.5,3.5 -20,14.1 -22.2,24.8 -4.3,20.6 16.3,41.2 36.9,36.9 15.5,-3.2 27.5,-19 26,-33.9 -1.1,-10.5 -9,-21.3 -19,-26.2 -6.1,-2.9 -15.5,-3.6 -21.7,-1.6 z"
       id="path5"
       style="fill:#161e1920;stroke:none;stroke-width:0.1" />
    <path
       d="m 695,33.5 c -10.5,3.5 -20,14.1 -22.2,24.8 -4.3,20.6 16.3,41.2 36.9,36.9 15.5,-3.2 27.5,-19 26,-33.9 -1.1,-10.5 -9,-21.3 -19,-26.2 -6.1,-2.9 -15.5,-3.6 -21.7,-1.6 z"
       id="path6"
       style="fill:#161e1920;stroke:none;stroke-width:0.1" />
    <path
       d="m 823,33.5 c -10.5,3.5 -20,14.1 -22.2,24.8 -4.3,20.6 16.3,41.2 36.9,36.9 15.5,-3.2 27.5,-19 26,-33.9 -1.1,-10.5 -9,-21.3 -19,-26.2 -6.1,-2.9 -15.5,-3.6 -21.7,-1.6 z"
       id="path7"
       style="fill:#161e1920;stroke:none;stroke-width:0.1" />
    <path
       d="m 951,33.5 c -10.5,3.5 -20,14.1 -22.2,24.8 -4.3,20.6 16.3,41.2 36.9,36.9 15.5,-3.2 27.5,-19 26,-33.9 -1.1,-10.5 -9,-21.3 -19,-26.2 -6.1,-2.9 -15.5,-3.6 -21.7,-1.6 z"
       id="path8"
       style="fill:#161e1920;stroke:none;stroke-width:0.1" />
    <path
       d="m 1079,33.5 c -10.5,3.5 -20,14.1 -22.2,24.8 -2.5,11.7 3.2,24.4 14.2,31.9 10.7,7.4 22.9,7.5 33.7,0.3 17.7,-11.8 20.1,-33.8 5.3,-48.5 -8.5,-8.6 -20.7,-11.9 -31,-8.5 z"
       id="path9"
       style="fill:#161e1920;stroke:none;stroke-width:0.1" />
    <path
       d="m 1207,33.5 c -10.5,3.5 -20,14.1 -22.2,24.8 -2.5,11.7 3.2,24.4 14.2,31.9 10.7,7.4 22.9,7.5 33.7,0.3 17.7,-11.8 20.1,-33.8 5.3,-48.5 -8.5,-8.6 -20.7,-11.9 -31,-8.5 z"
       id="path10"
       style="fill:#161e1920;stroke:none;stroke-width:0.1" />
    <path
       d="m 183,161.5 c -15.1,5 -25.3,21.6 -22.2,36.2 2.5,11.9 13.6,23 25.4,25.5 19.4,4.1 39.5,-14.2 37.5,-33.9 -1.1,-10.5 -9,-21.3 -19,-26.2 -6.1,-2.9 -15.5,-3.6 -21.7,-1.6 z"
       id="path12"
       style="fill:#161e1920;stroke:none;stroke-width:0.1" />
    <path
       d="m 311,161.5 c -10.5,3.5 -20,14.1 -22.2,24.8 -4.3,20.6 16.3,41.2 36.9,36.9 15.5,-3.2 27.5,-19 26,-33.9 -1.1,-10.5 -9,-21.3 -19,-26.2 -6.1,-2.9 -15.5,-3.6 -21.7,-1.6 z"
       id="path13"
       style="fill:#161e1920;stroke:none;stroke-width:0.1" />
    <path
       d="m 439,161.5 c -10.5,3.5 -20,14.1 -22.2,24.8 -4.3,20.6 16.3,41.2 36.9,36.9 15.5,-3.2 27.5,-19 26,-33.9 -1.1,-10.5 -9,-21.3 -19,-26.2 -6.1,-2.9 -15.5,-3.6 -21.7,-1.6 z"
       id="path14"
       style="fill:#161e1920;stroke:none;stroke-width:0.1" />
    <path
       d="m 567,161.5 c -10.5,3.5 -20,14.1 -22.2,24.8 -4.3,20.6 16.3,41.2 36.9,36.9 15.5,-3.2 27.5,-19 26,-33.9 -1.1,-10.5 -9,-21.3 -19,-26.2 -6.1,-2.9 -15.5,-3.6 -21.7,-1.6 z"
       id="path15"
       style="fill:#161e1920;stroke:none;stroke-width:0.1" />
    <path
       d="m 695,161.5 c -10.5,3.5 -20,14.1 -22.2,24.8 -4.3,20.6 16.3,41.2 36.9,36.9 15.5,-3.2 27.5,-19 26,-33.9 -1.1,-10.5 -9,-21.3 -19,-26.2 -6.1,-2.9 -15.5,-3.6 -21.7,-1.6 z"
       id="path16"
       style="fill:#161e1920;stroke:none;stroke-width:0.1" />
    <path
       d="m 823,161.5 c -10.5,3.5 -20,14.1 -22.2,24.8 -4.3,20.6 16.3,41.2 36.9,36.9 15.5,-3.2 27.5,-19 26,-33.9 -1.1,-10.5 -9,-21.3 -19,-26.2 -6.1,-2.9 -15.5,-3.6 -21.7,-1.6 z"
       id="path17"
       style="fill:#161e1920;stroke:none;stroke-width:0.1" />
    <path
       d="m 951,161.5 c -10.5,3.5 -20,14.1 -22.2,24.8 -4.3,20.6 16.3,41.2 36.9,36.9 15.5,-3.2 27.5,-19 26,-33.9 -1.1,-10.5 -9,-21.3 -19,-26.2 -6.1,-2.9 -15.5,-3.6 -21.7,-1.6 z"
       id="path18"
       style="fill:#161e1920;stroke:none;stroke-width:0.1" />
    <path
       d="m 1079,161.5 c -10.5,3.5 -20,14.1 -22.2,24.8 -2.5,11.7 3.2,24.4 14.2,31.9 10.7,7.4 22.9,7.5 33.7,0.3 17.7,-11.8 20.1,-33.8 5.3,-48.5 -8.5,-8.6 -20.7,-11.9 -31,-8.5 z"
       id="path19"
       style="fill:#161e1920;stroke:none;stroke-width:0.1" />
    <path
       d="m 1207,161.5 c -10.5,3.5 -20,14.1 -22.2,24.8 -2.5,11.7 3.2,24.4 14.2,31.9 10.7,7.4 22.9,7.5 33.7,0.3 17.7,-11.8 20.1,-33.8 5.3,-48.5 -8.5,-8.6 -20.7,-11.9 -31,-8.5 z"
       id="path20"
       style="fill:#161e1920;stroke:none;stroke-width:0.1" />
    <path
       d="m 311,289.5 c -10.5,3.5 -20,14.1 -22.2,24.8 -4.3,20.6 16.3,41.2 36.9,36.9 15.5,-3.2 27.5,-19 26,-33.9 -1.1,-10.5 -9,-21.3 -19,-26.2 -6.1,-2.9 -15.5,-3.6 -21.7,-1.6 z"
       id="path23"
       style="fill:#161e1920;stroke:none;stroke-width:0.1" />
    <path
       d="m 439,289.5 c -10.5,3.5 -20,14.1 -22.2,24.8 -4.3,20.6 16.3,41.2 36.9,36.9 15.5,-3.2 27.5,-19 26,-33.9 -1.1,-10.5 -9,-21.3 -19,-26.2 -6.1,-2.9 -15.5,-3.6 -21.7,-1.6 z"
       id="path24"
       style="fill:#161e1920;stroke:none;stroke-width:0.1" />
    <path
       d="m 567,289.5 c -10.5,3.5 -20,14.1 -22.2,24.8 -4.3,20.6 16.3,41.2 36.9,36.9 15.5,-3.2 27.5,-19 26,-33.9 -1.1,-10.5 -9,-21.3 -19,-26.2 -6.1,-2.9 -15.5,-3.6 -21.7,-1.6 z"
       id="path25"
       style="fill:#161e1920;stroke:none;stroke-width:0.1" />
    <path
       d="m 695,289.5 c -10.5,3.5 -20,14.1 -22.2,24.8 -4.3,20.6 16.3,41.2 36.9,36.9 15.5,-3.2 27.5,-19 26,-33.9 -1.1,-10.5 -9,-21.3 -19,-26.2 -6.1,-2.9 -15.5,-3.6 -21.7,-1.6 z"
       id="path26"
       style="fill:#161e1920;stroke:none;stroke-width:0.1" />
    <path
       d="m 823,289.5 c -10.5,3.5 -20,14.1 -22.2,24.8 -4.3,20.6 16.3,41.2 36.9,36.9 15.5,-3.2 27.5,-19 26,-33.9 -1.1,-10.5 -9,-21.3 -19,-26.2 -6.1,-2.9 -15.5,-3.6 -21.7,-1.6 z"
       id="path27"
       style="fill:#161e1920;stroke:none;stroke-width:0.1" />
    <path
       d="m 951,289.5 c -10.5,3.5 -20,14.1 -22.2,24.8 -4.3,20.6 16.3,41.2 36.9,36.9 15.5,-3.2 27.5,-19 26,-33.9 -1.1,-10.5 -9,-21.3 -19,-26.2 -6.1,-2.9 -15.5,-3.6 -21.7,-1.6 z"
       id="path28"
       style="fill:#161e1920;stroke:none;stroke-width:0.1" />
    <path
       d="m 1079,289.5 c -10.5,3.5 -20,14.1 -22.2,24.8 -4.3,20.6 16.3,41.2 36.9,36.9 15.5,-3.2 27.5,-19 26,-33.9 -1.1,-10.5 -9,-21.3 -19,-26.2 -6.1,-2.9 -15.5,-3.6 -21.7,-1.6 z"
       id="path29"
       style="fill:#161e1920;stroke:none;stroke-width:0.1" />
    <path
       d="m 1207,289.5 c -10.5,3.5 -20,14.1 -22.2,24.8 -4.3,20.6 16.3,41.2 36.9,36.9 15.5,-3.2 27.5,-19 26,-33.9 -1.1,-10.5 -9,-21.3 -19,-26.2 -6.1,-2.9 -15.5,-3.6 -21.7,-1.6 z"
       id="path30"
       style="fill:#161e1920;stroke:none;stroke-width:0.1" />
    <path
       d="m 439,417.5 c -10.5,3.5 -20,14.1 -22.2,24.8 -4.3,20.6 16.3,41.2 36.9,36.9 15.5,-3.2 27.5,-19 26,-33.9 -1.1,-10.5 -9,-21.3 -19,-26.2 -6.1,-2.9 -15.5,-3.6 -21.7,-1.6 z"
       id="path34"
       style="fill:#161e1920;stroke:none;stroke-width:0.1" />
    <path
       d="m 567,417.5 c -10.5,3.5 -20,14.1 -22.2,24.8 -4.3,20.6 16.3,41.2 36.9,36.9 15.5,-3.2 27.5,-19 26,-33.9 -1.1,-10.5 -9,-21.3 -19,-26.2 -6.1,-2.9 -15.5,-3.6 -21.7,-1.6 z"
       id="path35"
       style="fill:#161e1920;stroke:none;stroke-width:0.1" />
    <path
       d="m 695,417.5 c -10.5,3.5 -20,14.1 -22.2,24.8 -4.3,20.6 16.3,41.2 36.9,36.9 15.5,-3.2 27.5,-19 26,-33.9 -1.1,-10.5 -9,-21.3 -19,-26.2 -6.1,-2.9 -15.5,-3.6 -21.7,-1.6 z"
       id="path36"
       style="fill:#161e1920;stroke:none;stroke-width:0.1" />
    <path
       d="m 823,417.5 c -10.5,3.5 -20,14.1 -22.2,24.8 -4.3,20.6 16.3,41.2 36.9,36.9 15.5,-3.2 27.5,-19 26,-33.9 -1.1,-10.5 -9,-21.3 -19,-26.2 -6.1,-2.9 -15.5,-3.6 -21.7,-1.6 z"
       id="path37"
       style="fill:#161e1920;stroke:none;stroke-width:0.1" />
    <path
       d="m 951,417.5 c -10.5,3.5 -20,14.1 -22.2,24.8 -4.3,20.6 16.3,41.2 36.9,36.9 15.5,-3.2 27.5,-19 26,-33.9 -1.1,-10.5 -9,-21.3 -19,-26.2 -6.1,-2.9 -15.5,-3.6 -21.7,-1.6 z"
       id="path38"
       style="fill:#161e1920;stroke:none;stroke-width:0.1" />
    <path
       d="m 1079,417.5 c -10.5,3.5 -20,14.1 -22.2,24.8 -4.3,20.6 16.3,41.2 36.9,36.9 15.5,-3.2 27.5,-19 26,-33.9 -1.1,-10.5 -9,-21.3 -19,-26.2 -6.1,-2.9 -15.5,-3.6 -21.7,-1.6 z"
       id="path39"
       style="fill:#161e1920;stroke:none;stroke-width:0.1" />
    <path
       d="m 1207,417.5 c -10.5,3.5 -20,14.1 -22.2,24.8 -4.3,20.6 16.3,41.2 36.9,36.9 15.5,-3.2 27.5,-19 26,-33.9 -1.1,-10.5 -9,-21.3 -19,-26.2 -6.1,-2.9 -15.5,-3.6 -21.7,-1.6 z"
       id="path40"
       style="fill:#161e1920;stroke:none;stroke-width:0.1" />
    <path
       d="m 567,545.5 c -10.5,3.5 -20,14.1 -22.2,24.8 -4.3,20.6 16.3,41.2 36.9,36.9 15.5,-3.2 27.5,-19 26,-33.9 -1.1,-10.5 -9,-21.3 -19,-26.2 -6.1,-2.9 -15.5,-3.6 -21.7,-1.6 z"
       id="path45"
       style="fill:#161e1920;stroke:none;stroke-width:0.1" />
    <path
       d="m 695,545.5 c -10.5,3.5 -20,14.1 -22.2,24.8 -4.3,20.6 16.3,41.2 36.9,36.9 15.5,-3.2 27.5,-19 26,-33.9 -1.1,-10.5 -9,-21.3 -19,-26.2 -6.1,-2.9 -15.5,-3.6 -21.7,-1.6 z"
       id="path46"
       style="fill:#161e1920;stroke:none;stroke-width:0.1" />
    <path
       d="m 823,545.5 c -10.5,3.5 -20,14.1 -22.2,24.8 -4.3,20.6 16.3,41.2 36.9,36.9 15.5,-3.2 27.5,-19 26,-33.9 -1.1,-10.5 -9,-21.3 -19,-26.2 -6.1,-2.9 -15.5,-3.6 -21.7,-1.6 z"
       id="path47"
       style="fill:#161e1920;stroke:none;stroke-width:0.1" />
    <path
       d="m 951,545.5 c -10.5,3.5 -20,14.1 -22.2,24.8 -4.3,20.6 16.3,41.2 36.9,36.9 15.5,-3.2 27.5,-19 26,-33.9 -1.1,-10.5 -9,-21.3 -19,-26.2 -6.1,-2.9 -15.5,-3.6 -21.7,-1.6 z"
       id="path48"
       style="fill:#161e1920;stroke:none;stroke-width:0.1" />
    <path
       d="m 1079,545.5 c -10.5,3.5 -20,14.1 -22.2,24.8 -4.3,20.6 16.3,41.2 36.9,36.9 15.5,-3.2 27.5,-19 26,-33.9 -1.1,-10.5 -9,-21.3 -19,-26.2 -6.1,-2.9 -15.5,-3.6 -21.7,-1.6 z"
       id="path49"
       style="fill:#161e1920;stroke:none;stroke-width:0.1" />
    <path
       d="m 1207,545.5 c -10.5,3.5 -20,14.1 -22.2,24.8 -4.3,20.6 16.3,41.2 36.9,36.9 15.5,-3.2 27.5,-19 26,-33.9 -1.1,-10.5 -9,-21.3 -19,-26.2 -6.1,-2.9 -15.5,-3.6 -21.7,-1.6 z"
       id="path50"
       style="fill:#161e1920;stroke:none;stroke-width:0.1" />
    <path
       d="m 695,673.5 c -10.5,3.5 -20,14.1 -22.2,24.8 -4.3,20.6 16.3,41.2 36.9,36.9 15.5,-3.2 27.5,-19 26,-33.9 -1.1,-10.5 -9,-21.3 -19,-26.2 -6.1,-2.9 -15.5,-3.6 -21.7,-1.6 z"
       id="path56"
       style="fill:#161e1920;stroke:none;stroke-width:0.1" />
    <path
       d="m 823,673.5 c -10.5,3.5 -20,14.1 -22.2,24.8 -4.3,20.6 16.3,41.2 36.9,36.9 15.5,-3.2 27.5,-19 26,-33.9 -1.1,-10.5 -9,-21.3 -19,-26.2 -6.1,-2.9 -15.5,-3.6 -21.7,-1.6 z"
       id="path57"
       style="fill:#161e1920;stroke:none;stroke-width:0.1" />
    <path
       d="m 951,673.5 c -10.5,3.5 -20,14.1 -22.2,24.8 -4.3,20.6 16.3,41.2 36.9,36.9 15.5,-3.2 27.5,-19 26,-33.9 -1.1,-10.5 -9,-21.3 -19,-26.2 -6.1,-2.9 -15.5,-3.6 -21.7,-1.6 z"
       id="path58"
       style="fill:#161e1920;stroke:none;stroke-width:0.1" />
    <path
       d="m 1079,673.5 c -10.5,3.5 -20,14.1 -22.2,24.8 -4.3,20.6 16.3,41.2 36.9,36.9 15.5,-3.2 27.5,-19 26,-33.9 -1.1,-10.5 -9,-21.3 -19,-26.2 -6.1,-2.9 -15.5,-3.6 -21.7,-1.6 z"
       id="path59"
       style="fill:#161e1920;stroke:none;stroke-width:0.1" />
    <path
       d="m 1207,673.5 c -10.5,3.5 -20,14.1 -22.2,24.8 -4.3,20.6 16.3,41.2 36.9,36.9 15.5,-3.2 27.5,-19 26,-33.9 -1.1,-10.5 -9,-21.3 -19,-26.2 -6.1,-2.9 -15.5,-3.6 -21.7,-1.6 z"
       id="path60"
       style="fill:#161e1920;stroke:none;stroke-width:0.1" />
    <path
       d="m 823,801.5 c -15.1,5 -25.3,21.6 -22.2,36.2 2.5,11.9 13.6,23 25.5,25.5 19.3,4.1 39.4,-14.2 37.4,-33.9 -1.1,-10.5 -9,-21.3 -19,-26.2 -6.1,-2.9 -15.5,-3.6 -21.7,-1.6 z"
       id="path67"
       style="fill:#161e1920;stroke:none;stroke-width:0.1" />
    <path
       d="m 951,801.5 c -15.1,5 -25.3,21.6 -22.2,36.2 2.5,11.9 13.6,23 25.5,25.5 19.3,4.1 39.4,-14.2 37.4,-33.9 -1.1,-10.5 -9,-21.3 -19,-26.2 -6.1,-2.9 -15.5,-3.6 -21.7,-1.6 z"
       id="path68"
       style="fill:#161e1920;stroke:none;stroke-width:0.1" />
    <path
       d="m 1079,801.5 c -10.5,3.5 -20,14.1 -22.2,24.8 -4.3,20.6 16.3,41.2 36.9,36.9 15.5,-3.2 27.5,-19 26,-33.9 -1.1,-10.5 -9,-21.3 -19,-26.2 -6.1,-2.9 -15.5,-3.6 -21.7,-1.6 z"
       id="path69"
       style="fill:#161e1920;stroke:none;stroke-width:0.1" />
    <path
       d="m 1207,801.5 c -10.5,3.5 -20,14.1 -22.2,24.8 -4.3,20.6 16.3,41.2 36.9,36.9 15.5,-3.2 27.5,-19 26,-33.9 -1.1,-10.5 -9,-21.3 -19,-26.2 -6.1,-2.9 -15.5,-3.6 -21.7,-1.6 z"
       id="path70"
       style="fill:#161e1920;stroke:none;stroke-width:0.1" />
    <path
       d="m 951,929.5 c -15.1,5 -25.3,21.6 -22.2,36.2 2.5,11.9 13.6,23 25.5,25.5 19.3,4.1 39.4,-14.2 37.4,-33.9 -1.1,-10.5 -9,-21.3 -19,-26.2 -6.1,-2.9 -15.5,-3.6 -21.7,-1.6 z"
       id="path78"
       style="fill:#161e1920;stroke:none;stroke-width:0.1" />
    <path
       d="m 1079,929.5 c -10.5,3.5 -20,14.1 -22.2,24.8 -4.3,20.6 16.3,41.2 36.9,36.9 15.5,-3.2 27.5,-19 26,-33.9 -1.1,-10.5 -9,-21.3 -19,-26.2 -6.1,-2.9 -15.5,-3.6 -21.7,-1.6 z"
       id="path79"
       style="fill:#161e1920;stroke:none;stroke-width:0.1" />
    <path
       d="m 1207,929.5 c -10.5,3.5 -20,14.1 -22.2,24.8 -4.3,20.6 16.3,41.2 36.9,36.9 15.5,-3.2 27.5,-19 26,-33.9 -1.1,-10.5 -9,-21.3 -19,-26.2 -6.1,-2.9 -15.5,-3.6 -21.7,-1.6 z"
       id="path80"
       style="fill:#161e1920;stroke:none;stroke-width:0.1" />
    <path
       d="m 1079,1057.5 c -10.5,3.5 -20,14.1 -22.2,24.8 -4.3,20.6 16.3,41.2 36.9,36.9 15.5,-3.2 27.5,-19 26,-33.9 -1.1,-10.5 -9,-21.3 -19,-26.2 -6.1,-2.9 -15.5,-3.6 -21.7,-1.6 z"
       id="path89"
       style="fill:#161e1920;stroke:none;stroke-width:0.1" />
    <path
       d="m 1207,1057.5 c -10.5,3.5 -20,14.1 -22.2,24.8 -4.3,20.6 16.3,41.2 36.9,36.9 15.5,-3.2 27.5,-19 26,-33.9 -1.1,-10.5 -9,-21.3 -19,-26.2 -6.1,-2.9 -15.5,-3.6 -21.7,-1.6 z"
       id="path90"
       style="fill:#161e1920;stroke:none;stroke-width:0.1" />
    <path
       d="m 1207,1185.5 c -10.5,3.5 -20,14.1 -22.2,24.8 -4.3,20.6 16.3,41.2 36.9,36.9 15.5,-3.2 27.5,-19 26,-33.9 -1.1,-10.5 -9,-21.3 -19,-26.2 -6.1,-2.9 -15.5,-3.6 -21.7,-1.6 z"
       id="path100"
       style="fill:#161e1920;stroke:none;stroke-width:0.1" />
  </g>
</svg>
