<?xml version="1.0" encoding="UTF-8" standalone="no"?>
<!-- Uploaded to: SVG Repo, www.svgrepo.com, Generator: SVG Repo Mixer Tools -->

<svg
   fill="#fff"
   width="800px"
   height="800px"
   viewBox="0 0 512 512"
   version="1.1"
   id="svg2"
   sodipodi:docname="mail.svg"
   inkscape:version="1.3.2 (091e20e, 2023-11-25)"
   xmlns:inkscape="http://www.inkscape.org/namespaces/inkscape"
   xmlns:sodipodi="http://sodipodi.sourceforge.net/DTD/sodipodi-0.dtd"
   xmlns="http://www.w3.org/2000/svg"
   xmlns:svg="http://www.w3.org/2000/svg">
  <defs
     id="defs2" />
  <sodipodi:namedview
     id="namedview2"
     pagecolor="#ffffff"
     bordercolor="#000000"
     borderopacity="0.25"
     inkscape:showpageshadow="2"
     inkscape:pageopacity="0.0"
     inkscape:pagecheckerboard="0"
     inkscape:deskcolor="#d1d1d1"
     showgrid="true"
     inkscape:zoom="0.70625"
     inkscape:cx="400"
     inkscape:cy="400"
     inkscape:window-width="1392"
     inkscape:window-height="1212"
     inkscape:window-x="0"
     inkscape:window-y="25"
     inkscape:window-maximized="0"
     inkscape:current-layer="svg2">
    <inkscape:grid
       id="grid2"
       units="px"
       originx="0"
       originy="0"
       spacingx="0.64"
       spacingy="0.64"
       empcolor="#0099e5"
       empopacity="0.30196078"
       color="#0099e5"
       opacity="0.14901961"
       empspacing="5"
       dotted="false"
       gridanglex="30"
       gridanglez="30"
       visible="true" />
  </sodipodi:namedview>
  <title
     id="title1">ionicons-v5-d</title>
  <path
     d="M 256.41,0 C 115.28255,0 0.82001144,114.92818 0.82001144,256.74 0.82001144,398.55182 115.24568,513.48 256.41,513.48 397.57432,513.48 511.99999,398.53948 511.99999,256.74 511.99999,114.94052 397.52516,0 256.41,0 Z m 153.36628,250.88929 c -3.50207,40.27609 -20.61923,61.34605 -34.40634,71.91189 -13.78712,10.56584 -30.33903,15.23159 -44.64224,12.66419 a 51.154862,51.38503 0 0 1 -33.17754,-21.62541 74.760072,75.09645 0 0 1 -53.72305,22.09446 63.467418,63.752986 0 0 1 -47.37017,-20.77373 c -13.996,-15.33034 -20.88956,-37.47416 -18.83747,-60.76591 3.74783,-43.20144 37.99444,-70.83802 69.88174,-75.88642 33.4356,-5.29526 64.19241,8.0725 77.30369,24.02 l 4.71858,5.75196 -7.79058,62.1854 c -1.46227,17.70024 4.04275,28.98199 15.10193,30.9816 2.93683,0.51842 9.96555,-0.16046 17.67012,-6.08523 8.25752,-6.35678 18.604,-19.74923 21.01244,-47.48456 2.85081,-32.77138 -5.34527,-60.71654 -23.69122,-80.83607 -19.04637,-20.86012 -48.04601,-31.89501 -83.85318,-31.89501 -66.35509,0 -125.10393,54.84115 -130.95301,122.19837 -2.81394,32.33937 6.955,62.55569 27.51279,85.08216 20.10314,22.02039 48.36549,34.21554 79.44179,34.21554 23.34717,0 37.61351,-2.53037 60.81322,-10.83739 l 16.24471,-5.789 11.53841,32.5492 -16.20784,5.80134 c -26.81238,9.59072 -45.07232,12.837 -72.35163,12.837 -40.8944,0 -78.11469,-16.12031 -104.81647,-45.3862 -27.14415,-29.75962 -40.083395,-69.33214 -36.43386,-111.44738 3.5758,-41.14011 22.68361,-79.77455 53.78448,-108.76889 31.10088,-28.99434 70.74191,-45.04059 111.45199,-45.04059 45.71128,0 83.48453,14.91067 109.21556,43.11504 24.6374,27.04411 36.22497,65.11075 32.56315,107.21364 z"
     id="path1"
     style="stroke-width:1.23156" />
  <path
     d="M253.51,221c-14.83,2.33-31.55,15.84-33.34,36.26-1,11.06,2,21.22,8.08,27.87a23.63,23.63,0,0,0,17.91,7.75c19.7,0,33.8-14.79,36.8-38.59l1.75-13.89h.09l1.65-13.11a49.63,49.63,0,0,0-32.94-6.3Z"
     id="path2" />
</svg>
